<svg xmlns="http://www.w3.org/2000/svg" width="32" height="32" viewBox="0 0 32 32" fill="none">
  <circle cx="16" cy="16" r="16" fill="#fff"/>
  <g transform="translate(5.5, 8) scale(0.85)">
    <path
      d="M3.00897 14.3017C2.20703 13.3954 1.62112 12.3191 1.29535 11.1537C0.969576 9.98825 0.912436 8.7641 1.12823 7.5734C1.34402 6.3827 1.82712 5.25646 2.54115 4.27948C3.25519 3.3025 4.18156 2.50023 5.25052 1.93308C6.31948 1.36592 7.50317 1.04866 8.71249 1.00517C9.92181 0.961679 11.1252 1.1931 12.2322 1.68201C13.3391 2.17091 14.3207 2.90456 15.1031 3.82773C15.8855 4.7509 16.4482 5.83952 16.749 7.01165H18.009C19.0718 7.01082 20.1072 7.34868 20.965 7.97621C21.8228 8.60374 22.4584 9.48828 22.7794 10.5015C23.1004 11.5147 23.0902 12.6038 22.7503 13.6108C22.4103 14.6178 21.7689 15.5213 20.889 16.1017C20.009 16.682 13.009 16.5117 13.009 16.5117"
      stroke="#000"
      stroke-width="2"
      stroke-linecap="round"
      stroke-linejoin="round"
    />
  </g>
</svg>
